<svg xmlns="http://www.w3.org/2000/svg" xmlns:xlink="http://www.w3.org/1999/xlink" width="375" height="812" viewBox="0 0 375 812">
  <defs>
    <clipPath id="clip-_05_Vragenlijst_invullen_-_join_society">
      <rect width="375" height="812"/>
    </clipPath>
  </defs>
  <g id="_05_Vragenlijst_invullen_-_join_society" data-name="05_Vragenlijst invullen - join society" clip-path="url(#clip-_05_Vragenlijst_invullen_-_join_society)">
    <rect width="375" height="812" fill="#301a4b"/>
    <g id="Group_148" data-name="Group 148" transform="translate(2355.609 -1449.249)" opacity="0.1">
      <path id="Path_623" data-name="Path 623" d="M-1980.978,3272.964c-5.807,0-20.988-27.138-24.105-32.038a259.285,259.285,0,0,1-20.8-40.015c-11.849-28.631-13.678-58.8-22.556-88.114-10.9-35.992-40.3-48.167-73.56-58.665-48.727-15.379-101.664-37.8-121.75-84.786-16.9-39.536-4.2-87.6,24.283-119.808,20.3-22.949,47.613-38.079,76.356-47.832,31.537-10.7,64.762-11.785,96.526-21.858,39.914-12.657,72.242-39.445,89.961-77.684,19.57-42.235,13.354-79.279.508-122.145-16.634-55.5,20.5-109.56,74.972-124.528,48.024-13.2,99.69,1.61,143.647,25.024v792.292Z" transform="translate(-83.719 -689.038)" fill="#6db1bf"/>
      <path id="Path_624" data-name="Path 624" d="M-1862.01,2938.274a55.657,55.657,0,0,0-14.017-2.7c-47.756-3.019-94.8,30.1-111.946,73.947-3.888,9.943-7.469,22.424-2.474,32.6,10.472,21.334,40.431,7.332,55.366-.05q24.5-12.11,49-24.22c21.428-10.6,56.907-29.219,46.665-59.231C-1842.977,2948.182-1851.927,2941.644-1862.01,2938.274Z" transform="translate(-248.075 -997.361)" fill="#6db1bf"/>
      <path id="Path_625" data-name="Path 625" d="M-1714.207,2637.312q-1.626-1.305-3.377-2.479c-14.9-9.967-32.384-15.328-47.219-25.3-12.042-8.091-20.267-20.235-16.2-35.165l.023-.082c3.984-14.542,17.91-21.3,31.966-22.328,17.665-1.292,37.478,5.41,45.262,21.323,5.8,11.864,6.064,25.143,6.248,38.075.123,8.68.266,17.361.481,26.04.1,4.072.292,8.142.392,12.208.1,4.252-.477,8.516.551,12.689A62.361,62.361,0,0,0-1714.207,2637.312Z" transform="translate(-382.149 -753.436)" fill="#6db1bf"/>
      <path id="Path_626" data-name="Path 626" d="M-2382.944,1898.034c23.81-24.953,57.77-36.9,87.237-54.826,37.479-22.8,73.634-57.166,92.546-97.382,8.334-17.722,12.053-38.428,5.974-57.044-4.811-14.733-15.189-26.845-24.017-39.584a81.706,81.706,0,0,1,5.176-99.944c36.408-42.473,110.123-46.814,132.626-98.03,13.007-29.6.439-68.027-27.546-84.223H-2383Z" fill="#6db1bf"/>
      <path id="Path_627" data-name="Path 627" d="M-1435.906,1686.618c13.319,2.436,27.133,7.346,35.229,18.2,5.506,7.381,7.74,16.774,8.075,25.976.818,22.48-8.913,44.174-21.776,62.628-13.538,19.423-31.013,36.453-52.09,47.239-44.829,22.941-173.209,7.186-146.56-68.862C-1591.351,1709.939-1494.76,1675.853-1435.906,1686.618Z" transform="translate(-487.345 -201.998)" fill="#6db1bf"/>
    </g>
  </g>
</svg>
