<svg id="Group_123" data-name="Group 123" xmlns="http://www.w3.org/2000/svg" width="111.88" height="26.651" viewBox="0 0 111.88 26.651">
  <g id="Group_92" data-name="Group 92" transform="translate(0)">
    <path id="Path_480" data-name="Path 480" d="M4685.616,2822.094a6.449,6.449,0,0,0,1.383-.115c.28-.06.411-.121.477-.121.988,0,1.563,2.078,1.564,3.031,0,.879-.312,1.624-1.12,1.58-1.251-.062-.642-2.068-2.337-2.136-1.481-.057-1.532.165-1.613.85a19.156,19.156,0,0,0-.263,2.093c0,.236.165.232.346.249,1.1.1.411-1.636,1.63-1.566.839.049,1.021,1.356,1.021,2.082,0,1.062-.132,3.721-1.465,3.55-1.218-.14-.3-1.89-1.218-2-.312-.043-.626-.1-.626,2.544,0,1.082,1.137.675,1.137,1.545,0,1.3-2.47.853-3.31.7-2.552-.455-3.407-.9-3.407-1.826s.873-.268,1.2-1.022a28.959,28.959,0,0,0,1.021-6.536c0-1.509-1.1-.693-1.1-1.882,0-.928.971-1.116,1.7-1.114,1.333.006,1.91.082,2.5.086Z" transform="translate(-4677.813 -2821.818)" fill="#ffeaec"/>
    <path id="Path_481" data-name="Path 481" d="M4728.264,2833.787c0,.486-.017.68.4.932.313.175.543.31.543.712,0,1.241-2.5,1.037-3.276.974-.741-.05-3.111-.176-3.111-1.471a.554.554,0,0,1,.494-.612c.527-.145.526-.213.773-.814a29.874,29.874,0,0,0,.872-7.957c-.049-.346-.18-.37-.428-.457-.428-.154-.658-.217-.658-.849,0-1.144.954-1.357,1.679-1.4q2.708.007,5.417.01c1.876-.076,3.408.826,3.556,3.316.148,2.689-1.7,3.063-1.7,3.567,0,.276.166.356.329.515a1.762,1.762,0,0,1,.725.957c.3,1.063.165,2.378.4,3.2a.6.6,0,0,0,.428.469c.28.127.643.235.643.6,0,1.019-1.63,1.254-2.338,1.24-3.474-.07-2.6-2.988-3.193-5.111a.873.873,0,0,0-.89-.64c-.412-.017-.461.04-.51.51Q4728.337,2832.664,4728.264,2833.787Zm.444-5.506c-.033.438-.066.692.4.707.988.035,1.153-1.662,1.152-2.6,0-.787-.165-1.383-.873-1.391-.477-.006-.428.562-.477,1.036Q4728.807,2827.177,4728.708,2828.281Z" transform="translate(-4712.146 -2822.573)" fill="#ffeaec"/>
    <path id="Path_482" data-name="Path 482" d="M4778.9,2826.355c.016-.312.083-.6.083-1.046,0-1.04-1.152-.351-1.152-1.642,0-.278-.182-1.421,3.21-1.424,2.716,0,3.589.287,3.589,1.414,0,1.33-1.268.459-1.432,1.719-.049.4-.132.811-.2,1.2q-.321,2.829-.642,5.412a10.048,10.048,0,0,0-.115,1.219c0,1.461,1.169.633,1.169,1.728,0,1.291-2.239,1.3-3.095,1.321-2.75.052-3.754-.2-3.753-1.244,0-1.175,1.449-.214,1.663-2.186Q4778.566,2829.781,4778.9,2826.355Z" transform="translate(-4753.156 -2822.111)" fill="#ffeaec"/>
    <path id="Path_483" data-name="Path 483" d="M4812.273,2835.512c-.741.044-1.5.239-2.239.276-1.054.051-1.383-.378-1.383-.952,0-1.052,1.021-.6,1.383-1.76a44.173,44.173,0,0,0,.955-7.415c0-1.6-1.02-.986-1.021-2.138a1.386,1.386,0,0,1,1.663-1.473c.412.02.823.042,1.251.04.428.021.856.019,1.284.018l2.584-.007a4.893,4.893,0,0,0,1.2-.125,2.552,2.552,0,0,1,.56-.122c.56,0,1.383,1.107,1.383,2.912,0,.711-.3,1.48-.988,1.51-1.334.061-.576-1.886-2.535-1.849-1.662.029-1.448.412-1.63,2.5-.049.761-.181.917.362.895.971-.035.411-1.8,1.432-1.838,1-.029,1.1,1.5,1.1,2.342,0,1.006-.3,3.379-1.449,3.449-1.218.086-.263-1.819-1.284-1.769-.692.044-.51,1.75-.511,2.3,0,1.126.017,1.083,1.1,1.012,2.568-.171,1.975-2.426,3.309-2.528.79-.054.987.629.987,1.348,0,1.632-1.136,3.037-1.745,3.087a2.467,2.467,0,0,1-.379-.037,9.822,9.822,0,0,0-1,.028Q4814.471,2835.379,4812.273,2835.512Z" transform="translate(-4777.635 -2821.816)" fill="#ffeaec"/>
    <path id="Path_484" data-name="Path 484" d="M4868.034,2822.114c1.465,0,2.486.113,2.486,1.054,0,1.01-1.433.375-1.547,1.492-.017.133-.23,1.058-.3,1.579q-.337,2.385-.675,4.781c-.379,2.66-.972,3.183-1.927,3.284-1.036.109-1.6-.829-2.106-1.554-.8-1.155-1.6-2.338-2.4-3.565-.132-.2-.593-.963-.873-.947-.362.024-.412,1.1-.444,1.344-.082.56-.247,2.469-.247,2.706,0,1.15,1.152.733,1.152,1.528,0,.959-1.53,1.139-2.189,1.2-.708.067-2.881.252-2.881-.824,0-.858.988-.633,1.219-1.308a30.6,30.6,0,0,0,1.234-7.6c.132-1.433-1.317-.369-1.316-1.713,0-1.359,1.332-1.444,3.226-1.444,1.432-.01,1.695.207,2.766,2.052.62.992,1.239,1.951,1.859,2.885.1.152.725,1.137.938,1.119.56-.039.543-2.844.543-3.019.1-2.063-1.333-.451-1.333-1.9C4865.219,2822.878,4865.137,2822.113,4868.034,2822.114Z" transform="translate(-4813.822 -2822.013)" fill="#ffeaec"/>
    <path id="Path_485" data-name="Path 485" d="M4916.926,2833.577c-.231.024-.478.066-.708.107-.247.042-.478.084-.724.109-.708.074-1.285-.028-1.284-.835,0-1.135,1.021-.6,1.317-1.561a37.039,37.039,0,0,0,.938-6.479c0-1.293-1.1-.538-1.1-1.508,0-1.053,1-1.085,1.828-1.088,1.513-.006,3.243-.057,4.856-.09,1.81.013,5.12.139,5.12,4.169,0,1.525-.642,6.147-6.519,6.791Q4918.786,2833.381,4916.926,2833.577Zm3.013-3.2c.016.525-.017.93.576.873,2.008-.206,2.4-3.151,2.4-4.946,0-1.171-.2-2.412-1.613-2.376-1,.027-.856.869-.938,1.438Q4920.152,2827.814,4919.938,2830.38Z" transform="translate(-4858.17 -2822.104)" fill="#ffeaec"/>
    <path id="Path_486" data-name="Path 486" d="M4969.35,2829.039a1.357,1.357,0,0,1,1.284-1.49c.839-.055,1.086.619,1.333,1.19.3.654.79,1.389,1.679,1.326a1.055,1.055,0,0,0,1.1-.943c0-1.3-3.917-1.64-3.918-4.334,0-2.1,2.206-3.11,4.478-3.1a12.556,12.556,0,0,1,1.663.2,6.017,6.017,0,0,1,.971-.2,1.965,1.965,0,0,1,1.778,1.685,1.232,1.232,0,0,1-1.284,1.1c-1.2.027-1.548-1.288-2.65-1.262-.428.008-.773.191-.773.554,0,.48.543.73,1.021.911,1.7.695,3.309,1.249,3.309,3.143,0,2.542-2.963,4.024-5.465,4.2C4971.7,2832.184,4969.349,2831.359,4969.35,2829.039Z" transform="translate(-4900.239 -2821.688)" fill="#ffeaec"/>
    <path id="Path_487" data-name="Path 487" d="M5019.12,2829.474c0,.616.725.314.724,1,0,.557-.361,1.057-2.814,1.132-2.009.071-3.1.027-3.095-.878,0-.68.9-.687,1.053-1.145a20.21,20.21,0,0,0,.938-5.769c0-.7-.938-.33-.938-.981,0-.133-.247-.88,3.589-.874,1.993,0,2.4.246,2.4.65,0,.66-.971.454-1.12,1.14a7.925,7.925,0,0,0-.214,1.334c0,.179-.132.371,1.4.36.3,0,1-.031,1.136-.311a6.351,6.351,0,0,0,.2-1.474c0-.646-.724-.39-.724-.948,0-.574.642-.75,3.359-.751,2.205,0,2.551.253,2.551.641,0,.764-1.054.25-1.218,1.161a36.118,36.118,0,0,0-.757,5.382c-.033,1.1.889.373.889,1.379,0,.589-.544,1.021-2.8,1-2.371-.011-3.21-.089-3.21-.992,0-.8.856-.425,1-1.115a11.715,11.715,0,0,0,.362-2c0-.43-.707-.438-1.07-.435-1.4.015-1.366.178-1.481.741Q5019.2,2828.569,5019.12,2829.474Z" transform="translate(-4934.255 -2821.896)" fill="#ffeaec"/>
    <path id="Path_488" data-name="Path 488" d="M5071.273,2824.248a5.043,5.043,0,0,0,.082-.613c0-.589-1.152-.226-1.152-.925,0-.154-.181-.734,3.21-.732,2.716,0,3.589.157,3.589.824,0,.8-1.267.236-1.432.992-.049.241-.132.5-.2.742q-.321,1.789-.642,3.774a6.026,6.026,0,0,0-.115.967c0,1.221,1.168.644,1.168,1.6,0,1.154-2.239.939-3.095.891-2.75-.157-3.754-.4-3.753-1.328,0-1,1.449-.167,1.663-1.753S5071.048,2825.614,5071.273,2824.248Z" transform="translate(-4976.217 -2821.908)" fill="#ffeaec"/>
    <path id="Path_489" data-name="Path 489" d="M5106.453,2829.905c-.264,1.746,1.07.916,1.07,2.015,0,.825-1,.935-3.589.613-2.914-.338-2.914-.975-2.914-1.373,0-.949.873-.171,1.185-1.139a32.191,32.191,0,0,0,1.037-6.059c0-.65-1.168-.189-1.168-.973,0-.708,1.053-.812,1.761-.813.4,0,.89.015,1.351.03.477.029.9.045,1.185.046.428,0,.856-.009,1.3-.036.428-.012.855-.025,1.284-.024,2.041-.01,3.622.693,3.622,3.044,0,2.215-1.466,4.149-5.269,3.618-.264-.033-.51-.08-.773-.111Q5106.494,2829.32,5106.453,2829.905Zm.378-3.85a8.663,8.663,0,0,0-.115.865c0,.239.065.261.313.287,1.283.141,1.515-1.774,1.515-2.624a.876.876,0,0,0-.955-.977c-.411-.015-.428.34-.576,1.261Q5106.922,2825.458,5106.832,2826.055Z" transform="translate(-5000.697 -2822.06)" fill="#ffeaec"/>
    <path id="Path_490" data-name="Path 490" d="M4751.46,2900.218a1.13,1.13,0,0,1,1.284-1.16c.84.019,1.087.631,1.333,1.116a1.878,1.878,0,0,0,1.679,1.154c.56,0,1.1-.215,1.1-.672,0-1.083-3.918-1.512-3.918-4.222,0-2.163,2.206-3.446,4.478-3.434a9.917,9.917,0,0,1,1.663.262c.214,0,.51-.274.972-.281.971-.009,1.777,1.4,1.777,2.169a1.279,1.279,0,0,1-1.284,1.269c-1.2.028-1.547-1.494-2.65-1.5-.428,0-.773.211-.773.625,0,.544.544.83,1.021,1.042,1.7.779,3.309,1.464,3.309,3.163,0,2.21-2.963,2.967-5.465,2.985C4753.814,2902.722,4751.46,2902.1,4751.46,2900.218Z" transform="translate(-4734.001 -2876.081)" fill="#ffeaec"/>
    <path id="Path_491" data-name="Path 491" d="M4802.516,2901.388c-2.8-.027-4.873-1.009-4.873-3.254,0-3.169,3.21-6.625,7.243-6.881,2.8-.194,4.873,1.237,4.873,3.876C4809.759,2898.884,4806.549,2901.445,4802.516,2901.388Zm2.815-6.251c0-.56-.05-1.886-1.053-1.831-1.763.165-2.206,4.042-2.206,4.96,0,.515.049,1.6,1.053,1.583C4804.886,2899.889,4805.331,2896.334,4805.331,2895.137Z" transform="translate(-4769.236 -2874.749)" fill="#ffeaec"/>
    <path id="Path_492" data-name="Path 492" d="M4856.356,2895.535a2.874,2.874,0,0,0,1.959-1.013c.346-.334.905-1.077,1.5-1.116.676-.043.971.4.972.991,0,.838-.676,2.388-1.7,2.457a1.409,1.409,0,0,0-.675.191,7.588,7.588,0,0,1-3.72.918c-2.733-.033-4.758-1.26-4.757-3.637a8.214,8.214,0,0,1,6.914-7.512,6.177,6.177,0,0,1,1.976.175c.2-.021.478-.211.708-.235.956-.1,1.729,1.371,1.729,2.372a1.694,1.694,0,0,1-1.514,1.834c-1.531.13-1.3-1.962-2.782-1.828-1.646.175-2.371,3.223-2.371,4.279C4854.595,2894.42,4855.023,2895.581,4856.356,2895.535Z" transform="translate(-4809.134 -2871.325)" fill="#ffeaec"/>
    <path id="Path_493" data-name="Path 493" d="M4899.775,2886.49c.017-.246.083-.482.083-.825,0-.8-1.153-.163-1.152-1.142,0-.212-.181-1.043,3.21-1.4,2.716-.287,3.589-.164,3.589.719,0,1.051-1.269.479-1.432,1.494-.05.322-.132.664-.2.987q-.321,2.335-.642,4.677a8.143,8.143,0,0,0-.115,1.116c0,1.365,1.168.584,1.168,1.647,0,1.279-2.239,1.226-3.1,1.227-2.749,0-3.753-.212-3.753-1.14,0-1.031,1.448-.231,1.662-1.967C4899.326,2890.107,4899.551,2888.306,4899.775,2886.49Z" transform="translate(-4845.375 -2868.451)" fill="#ffeaec"/>
    <path id="Path_494" data-name="Path 494" d="M4933.144,2890.893c-.742,0-1.5.169-2.239.169-1.054,0-1.383-.453-1.383-1.025,0-1.041,1.021-.578,1.383-1.714a40.811,40.811,0,0,0,.955-6.718c0-1.321-1.021-.731-1.021-1.653,0-.969.873-1.272,1.663-1.32.412-.025.823-.051,1.251-.092.428-.026.855-.067,1.284-.109q1.292-.126,2.585-.244a6.174,6.174,0,0,0,1.2-.209,3.144,3.144,0,0,1,.56-.15c.56-.047,1.384.8,1.383,2.441,0,.647-.3,1.383-.987,1.434-1.333.1-.576-1.7-2.535-1.525-1.663.15-1.449.428-1.63,2.291-.049.687-.181.841.362.8.971-.077.411-1.652,1.432-1.732,1-.086,1.1,1.323,1.1,2.142,0,.948-.3,3.386-1.449,3.438-1.218.049-.263-1.845-1.284-1.781-.691.04-.51,1.707-.51,2.28,0,1.157.017,1.124,1.1,1.092,2.569-.075,1.975-2.5,3.309-2.552.79-.038.987.692.987,1.485,0,1.8-1.136,3.379-1.745,3.372a2.259,2.259,0,0,1-.378-.077,8.105,8.105,0,0,0-1-.056Z" transform="translate(-4869.854 -2864.517)" fill="#ffeaec"/>
    <path id="Path_495" data-name="Path 495" d="M4988.292,2874.8a5.042,5.042,0,0,0,1.169-.156,2.06,2.06,0,0,1,.543-.125c1-.05,1.6,1.815,1.6,2.7,0,.958-.428,1.852-1.366,1.882-1.251.027-1.037-2.243-1.762-2.2-.526.026-.543.765-.675,2.1-.1,1.1-.444,4.1-.444,5.851s1.251.839,1.251,2.1c0,.634-.592,1.543-4.017,1.543-2.963,0-3.013-.958-3.013-1.38,0-1.2,1.169-.625,1.465-1.6.4-1.384.972-7.609.972-7.79,0-.268-.1-.579-.4-.56-.824.042-.625,2.255-2.091,2.357-.757.049-1.168-.5-1.168-1.265,0-1.126.955-3.23,2.173-3.313a1.56,1.56,0,0,1,.478.067,2.034,2.034,0,0,0,.592.06Q4985.946,2874.92,4988.292,2874.8Z" transform="translate(-4908.638 -2861.997)" fill="#ffeaec"/>
    <path id="Path_496" data-name="Path 496" d="M5029.139,2876.76c-.543-.759-1.35-.415-1.35-1.209,0-.955.889-1.289,4.033-1.326,1.778-.01,2.223.321,2.223,1,0,.806-.741.736-.741,1.219,0,.315.592,1.751.873,1.779.247.01,1.284-1.665,1.284-1.868,0-.358-.56-.491-.56-1.122,0-.977,1.811-.971,2.42-.951,1.433.045,2.173.3,2.173,1.047,0,.961-1.152.581-1.6,1.155q-.964,1.258-1.926,2.6c-1.086,1.533-1.086,1.682-1.169,3.772q-.033,1.188-.065,2.423c-.034,1.062,1.168.384,1.168,1.478,0,.407.1,1.5-3.227,1.5-1.728,0-3.309-.051-3.309-1.286,0-1.353,1.3-.674,1.416-1.736q.23-2.132.461-4.123a2.9,2.9,0,0,0-.444-1.338Q5029.97,2878.219,5029.139,2876.76Z" transform="translate(-4944.825 -2861.77)" fill="#ffeaec"/>
  </g>
</svg>
