<svg id="Group_123" data-name="Group 123" xmlns="http://www.w3.org/2000/svg" width="276.176" height="65.788" viewBox="0 0 276.176 65.788">
  <g id="Group_92" data-name="Group 92" transform="translate(0)">
    <path id="Path_480" data-name="Path 480" d="M4697.075,2822.44a15.878,15.878,0,0,0,3.415-.284c.69-.147,1.015-.3,1.177-.3,2.44,0,3.859,5.13,3.861,7.481,0,2.17-.771,4.008-2.764,3.9-3.089-.154-1.585-5.106-5.771-5.272-3.656-.142-3.781.407-3.982,2.1a47.382,47.382,0,0,0-.649,5.167c0,.583.406.574.854.615,2.722.249,1.015-4.039,4.023-3.865,2.07.122,2.519,3.348,2.519,5.138,0,2.622-.325,9.187-3.617,8.762-3.007-.346-.731-4.665-3.007-4.936-.771-.107-1.545-.252-1.545,6.281,0,2.67,2.806,1.665,2.806,3.814,0,3.208-6.1,2.1-8.17,1.721-6.3-1.123-8.41-2.211-8.41-4.508,0-2.274,2.153-.662,2.966-2.524,1.139-2.608,2.518-12.733,2.52-16.134,0-3.724-2.721-1.71-2.722-4.646,0-2.29,2.4-2.755,4.185-2.75,3.292.014,4.714.2,6.178.212Z" transform="translate(-4677.814 -2821.758)" fill="#ffeaec"/>
    <path id="Path_481" data-name="Path 481" d="M4736.267,2849.852c0,1.2-.041,1.678.975,2.3.772.432,1.342.764,1.342,1.758,0,3.063-6.179,2.559-8.088,2.4-1.828-.122-7.681-.434-7.681-3.63a1.368,1.368,0,0,1,1.221-1.511c1.3-.358,1.3-.525,1.909-2.009,1.1-2.526,2.642-15.373,2.152-19.642-.12-.854-.444-.913-1.056-1.129-1.056-.379-1.625-.536-1.625-2.1,0-2.823,2.355-3.349,4.144-3.446q6.687.016,13.371.024c4.632-.188,8.412,2.039,8.777,8.186.366,6.637-4.187,7.562-4.187,8.8,0,.681.409.88.813,1.271a4.354,4.354,0,0,1,1.789,2.362c.73,2.624.407,5.87.976,7.91a1.478,1.478,0,0,0,1.057,1.158c.691.314,1.586.581,1.586,1.493,0,2.515-4.023,3.1-5.771,3.06-8.574-.172-6.422-7.375-7.883-12.617a2.156,2.156,0,0,0-2.2-1.579c-1.017-.042-1.138.1-1.258,1.258Q4736.448,2847.08,4736.267,2849.852Zm1.1-13.592c-.082,1.08-.164,1.708.975,1.744,2.438.087,2.846-4.1,2.845-6.423,0-1.943-.406-3.415-2.153-3.433-1.178-.014-1.057,1.387-1.178,2.558Q4737.607,2833.534,4737.363,2836.259Z" transform="translate(-4696.48 -2822.169)" fill="#ffeaec"/>
    <path id="Path_482" data-name="Path 482" d="M4782.335,2832.394c.04-.771.2-1.491.2-2.583,0-2.566-2.844-.867-2.845-4.054,0-.687-.448-3.508,7.924-3.515,6.7,0,8.859.708,8.859,3.491,0,3.282-3.13,1.134-3.535,4.244-.122.979-.325,2-.488,2.964q-.792,6.982-1.585,13.358a24.74,24.74,0,0,0-.284,3.008c0,3.606,2.885,1.562,2.885,4.265,0,3.186-5.526,3.217-7.639,3.26-6.787.129-9.268-.484-9.266-3.07,0-2.9,3.577-.528,4.1-5.4Q4781.5,2840.85,4782.335,2832.394Z" transform="translate(-4718.779 -2821.917)" fill="#ffeaec"/>
    <path id="Path_483" data-name="Path 483" d="M4817.593,2855.566c-1.83.108-3.7.591-5.528.681-2.6.125-3.413-.934-3.413-2.349,0-2.6,2.52-1.481,3.413-4.345.936-3.01,2.356-14.4,2.356-18.3,0-3.939-2.518-2.434-2.519-5.277,0-3.031,2.153-3.745,4.1-3.635,1.017.049,2.032.1,3.089.1,1.057.051,2.112.047,3.17.045l6.38-.016a12.087,12.087,0,0,0,2.966-.308,6.292,6.292,0,0,1,1.382-.3c1.382,0,3.413,2.734,3.414,7.189,0,1.755-.731,3.654-2.438,3.727-3.293.149-1.422-4.655-6.258-4.564-4.1.072-3.575,1.017-4.023,6.161-.122,1.878-.447,2.264.895,2.208,2.4-.087,1.015-4.434,3.535-4.537,2.479-.072,2.723,3.712,2.723,5.781,0,2.484-.733,8.342-3.576,8.514-3.007.213-.649-4.489-3.169-4.368-1.708.108-1.258,4.319-1.261,5.671,0,2.779.041,2.673,2.723,2.5,6.341-.422,4.876-5.989,8.169-6.24,1.95-.134,2.438,1.552,2.438,3.328,0,4.029-2.8,7.5-4.307,7.619a6.086,6.086,0,0,1-.936-.091,24.214,24.214,0,0,0-2.479.07Q4823.017,2855.239,4817.593,2855.566Z" transform="translate(-4732.089 -2821.758)" fill="#ffeaec"/>
    <path id="Path_484" data-name="Path 484" d="M4885.585,2822.115c3.617,0,6.137.28,6.137,2.6,0,2.494-3.536.926-3.819,3.684-.043.329-.568,2.61-.732,3.9-.554,3.924-1.111,7.866-1.665,11.8-.936,6.567-2.4,7.857-4.757,8.106-2.558.269-3.938-2.046-5.2-3.837-1.979-2.852-3.956-5.771-5.933-8.8-.327-.49-1.464-2.377-2.155-2.337-.895.059-1.017,2.705-1.1,3.317-.2,1.382-.61,6.1-.61,6.679,0,2.838,2.845,1.809,2.845,3.772,0,2.368-3.777,2.812-5.4,2.964-1.747.165-7.111.622-7.111-2.034,0-2.118,2.439-1.562,3.008-3.229,2.438-7.124,2.561-13.75,3.047-18.765.326-3.538-3.252-.912-3.249-4.229,0-3.355,3.288-3.565,7.964-3.563,3.535-.024,4.184.51,6.828,5.066,1.53,2.449,3.059,4.816,4.59,7.122.243.375,1.788,2.807,2.316,2.762,1.383-.1,1.34-7.019,1.342-7.453.243-5.094-3.292-1.114-3.292-4.691C4878.637,2824,4878.435,2822.112,4885.585,2822.115Z" transform="translate(-4751.765 -2821.865)" fill="#ffeaec"/>
    <path id="Path_485" data-name="Path 485" d="M4920.915,2850.236c-.57.06-1.179.164-1.748.265-.609.1-1.179.207-1.787.27-1.748.184-3.171-.07-3.17-2.061,0-2.8,2.519-1.478,3.251-3.853a91.448,91.448,0,0,0,2.316-15.992c0-3.191-2.723-1.329-2.723-3.723,0-2.6,2.477-2.679,4.511-2.687,3.734-.016,8-.141,11.987-.221,4.468.031,12.639.343,12.638,10.291,0,3.765-1.584,15.175-16.092,16.762Q4925.506,2849.753,4920.915,2850.236Zm7.437-7.892c.04,1.295-.041,2.295,1.423,2.154,4.956-.509,5.934-7.779,5.933-12.21,0-2.892-.487-5.953-3.982-5.865-2.48.067-2.114,2.146-2.317,3.55Q4928.88,2836.009,4928.352,2842.344Z" transform="translate(-4775.877 -2821.914)" fill="#ffeaec"/>
    <path id="Path_486" data-name="Path 486" d="M4969.35,2839.834a3.348,3.348,0,0,1,3.17-3.677c2.07-.137,2.682,1.529,3.292,2.937.731,1.615,1.95,3.43,4.144,3.273,1.383-.1,2.726-.916,2.723-2.327,0-3.213-9.67-4.047-9.671-10.7,0-5.179,5.445-7.676,11.054-7.654a30.952,30.952,0,0,1,4.1.493,14.912,14.912,0,0,1,2.4-.493,4.85,4.85,0,0,1,4.389,4.16,3.041,3.041,0,0,1-3.17,2.706c-2.967.067-3.82-3.178-6.542-3.115-1.056.02-1.909.472-1.909,1.368,0,1.186,1.34,1.8,2.519,2.249,4.186,1.715,8.169,3.084,8.168,7.758,0,6.275-7.314,9.933-13.491,10.366C4975.162,2847.6,4969.347,2845.563,4969.35,2839.834Z" transform="translate(-4798.751 -2821.687)" fill="#ffeaec"/>
    <path id="Path_487" data-name="Path 487" d="M5026.735,2840.508c0,1.52,1.79.775,1.787,2.474,0,1.375-.892,2.61-6.947,2.794-4.959.174-7.641.066-7.64-2.168,0-1.678,2.233-1.7,2.6-2.827a49.873,49.873,0,0,0,2.316-14.241c0-1.728-2.316-.815-2.316-2.422,0-.327-.608-2.172,8.859-2.157,4.919,0,5.933.607,5.934,1.6,0,1.629-2.4,1.121-2.764,2.814a19.609,19.609,0,0,0-.528,3.292c0,.442-.325.916,3.455.888.731,0,2.479-.076,2.8-.767a15.688,15.688,0,0,0,.486-3.638c0-1.593-1.787-.962-1.787-2.341,0-1.416,1.585-1.85,8.291-1.855,5.443,0,6.3.625,6.3,1.582,0,1.885-2.6.617-3.007,2.865a89.072,89.072,0,0,0-1.868,13.286c-.082,2.725,2.193.919,2.193,3.4,0,1.454-1.343,2.521-6.909,2.464-5.852-.028-7.924-.221-7.924-2.449,0-1.965,2.114-1.05,2.479-2.753a28.857,28.857,0,0,0,.894-4.945c0-1.061-1.745-1.081-2.643-1.074-3.454.037-3.372.438-3.656,1.829Q5026.938,2838.274,5026.735,2840.508Z" transform="translate(-4817.246 -2821.801)" fill="#ffeaec"/>
    <path id="Path_488" data-name="Path 488" d="M5074.707,2827.582a12.4,12.4,0,0,0,.2-1.514c0-1.455-2.844-.558-2.844-2.283,0-.379-.446-1.813,7.924-1.808,6.7.006,8.858.387,8.858,2.035,0,1.973-3.128.583-3.535,2.449-.121.594-.326,1.226-.488,1.831q-.791,4.415-1.583,9.317a14.863,14.863,0,0,0-.285,2.386c0,3.014,2.885,1.589,2.885,3.956,0,2.849-5.526,2.319-7.64,2.2-6.787-.388-9.267-.98-9.266-3.279,0-2.473,3.578-.412,4.1-4.328Q5073.874,2832.632,5074.707,2827.582Z" transform="translate(-4840.061 -2821.807)" fill="#ffeaec"/>
    <path id="Path_489" data-name="Path 489" d="M5114.431,2841.255c-.65,4.31,2.641,2.261,2.641,4.975,0,2.038-2.479,2.309-8.858,1.513-7.192-.835-7.192-2.406-7.192-3.39,0-2.342,2.155-.421,2.926-2.812a79.512,79.512,0,0,0,2.56-14.956c0-1.6-2.883-.468-2.885-2.4,0-1.747,2.6-2,4.347-2.007.978,0,2.2.038,3.334.075,1.178.071,2.233.11,2.926.113,1.057.006,2.114-.022,3.209-.088,1.058-.031,2.112-.062,3.171-.059,5.038-.025,8.94,1.712,8.94,7.515,0,5.467-3.618,10.242-13,8.931-.651-.082-1.26-.2-1.909-.275Q5114.532,2839.81,5114.431,2841.255Zm.935-9.5a21.294,21.294,0,0,0-.285,2.135c0,.59.162.645.773.708,3.167.349,3.738-4.379,3.738-6.478a2.163,2.163,0,0,0-2.357-2.411c-1.015-.037-1.057.84-1.422,3.112Q5115.589,2830.277,5115.366,2831.751Z" transform="translate(-4853.372 -2821.89)" fill="#ffeaec"/>
    <path id="Path_490" data-name="Path 490" d="M4751.46,2910.846a2.789,2.789,0,0,1,3.17-2.864c2.073.048,2.683,1.558,3.291,2.754a4.634,4.634,0,0,0,4.145,2.849c1.383,0,2.725-.531,2.723-1.659,0-2.674-9.671-3.732-9.671-10.422,0-5.34,5.445-8.506,11.053-8.477a24.469,24.469,0,0,1,4.105.648c.527,0,1.259-.677,2.4-.694,2.4-.022,4.387,3.463,4.387,5.354a3.158,3.158,0,0,1-3.17,3.133c-2.967.069-3.819-3.689-6.542-3.708-1.058,0-1.909.521-1.909,1.542,0,1.343,1.343,2.049,2.519,2.573,4.188,1.924,8.168,3.615,8.168,7.807,0,5.456-7.314,7.325-13.491,7.368C4757.271,2917.027,4751.46,2915.493,4751.46,2910.846Z" transform="translate(-4708.364 -2851.263)" fill="#ffeaec"/>
    <path id="Path_491" data-name="Path 491" d="M4809.673,2916.3c-6.909-.066-12.029-2.491-12.029-8.033,0-7.823,7.924-16.353,17.88-16.986,6.908-.478,12.028,3.053,12.028,9.567C4827.552,2910.115,4819.628,2916.438,4809.673,2916.3Zm6.948-15.432c0-1.383-.124-4.655-2.6-4.52-4.352.407-5.446,9.978-5.446,12.245,0,1.272.121,3.959,2.6,3.909C4815.523,2912.6,4816.621,2903.821,4816.621,2900.866Z" transform="translate(-4727.523 -2850.537)" fill="#ffeaec"/>
    <path id="Path_492" data-name="Path 492" d="M4865.784,2908.438c2.071-.075,3.455-1.151,4.836-2.5.854-.825,2.234-2.658,3.7-2.755,1.668-.107,2.4.976,2.4,2.445,0,2.069-1.668,5.9-4.187,6.064a3.478,3.478,0,0,0-1.666.471,18.722,18.722,0,0,1-9.183,2.266c-6.746-.082-11.746-3.111-11.744-8.979,0-7.692,7.232-17.41,17.067-18.544a15.247,15.247,0,0,1,4.877.433c.488-.051,1.179-.521,1.747-.581,2.358-.243,4.268,3.385,4.267,5.855,0,2.239-1.259,4.323-3.738,4.526-3.779.322-3.211-4.843-6.867-4.511-4.064.432-5.854,7.956-5.854,10.563C4861.436,2905.687,4862.494,2908.551,4865.784,2908.438Z" transform="translate(-4749.215 -2848.677)" fill="#ffeaec"/>
    <path id="Path_493" data-name="Path 493" d="M4903.208,2891.642c.041-.607.2-1.189.205-2.037,0-1.978-2.847-.4-2.845-2.818,0-.524-.447-2.575,7.924-3.465,6.7-.708,8.859-.4,8.859,1.776,0,2.594-3.132,1.181-3.535,3.687-.123.794-.327,1.638-.488,2.437q-.792,5.764-1.585,11.546a19.968,19.968,0,0,0-.283,2.754c0,3.37,2.883,1.443,2.884,4.066,0,3.156-5.526,3.025-7.641,3.029-6.784,0-9.264-.524-9.264-2.813,0-2.546,3.575-.57,4.1-4.856C4902.1,2900.572,4902.653,2896.126,4903.208,2891.642Z" transform="translate(-4768.92 -2847.114)" fill="#ffeaec"/>
    <path id="Path_494" data-name="Path 494" d="M4938.463,2910.083c-1.831.009-3.7.417-5.527.417-2.6,0-3.413-1.119-3.413-2.53,0-2.568,2.521-1.426,3.413-4.23a100.739,100.739,0,0,0,2.356-16.583c0-3.261-2.52-1.8-2.519-4.081,0-2.392,2.153-3.141,4.1-3.258,1.017-.062,2.032-.125,3.089-.228,1.056-.064,2.111-.167,3.17-.27q3.189-.311,6.381-.6a15.241,15.241,0,0,0,2.965-.517,7.778,7.778,0,0,1,1.382-.37c1.381-.116,3.415,1.963,3.413,6.025,0,1.6-.73,3.413-2.437,3.54-3.29.237-1.422-4.2-6.258-3.764-4.105.371-3.577,1.056-4.023,5.656-.12,1.7-.446,2.075.895,1.97,2.4-.189,1.015-4.079,3.535-4.276,2.479-.213,2.723,3.266,2.723,5.288,0,2.341-.731,8.359-3.576,8.486-3.007.121-.649-4.555-3.17-4.4-1.707.1-1.26,4.213-1.26,5.629,0,2.856.041,2.774,2.723,2.7,6.342-.185,4.876-6.164,8.169-6.3,1.95-.094,2.436,1.709,2.438,3.666,0,4.452-2.8,8.342-4.309,8.323a5.534,5.534,0,0,1-.934-.191,20.037,20.037,0,0,0-2.479-.137Q4943.888,2910.062,4938.463,2910.083Z" transform="translate(-4782.23 -2844.975)" fill="#ffeaec"/>
    <path id="Path_495" data-name="Path 495" d="M4999.944,2875.218a12.471,12.471,0,0,0,2.886-.385,5.082,5.082,0,0,1,1.341-.308c2.48-.123,3.941,4.479,3.941,6.658,0,2.366-1.057,4.572-3.373,4.646-3.088.066-2.56-5.536-4.349-5.421-1.3.064-1.34,1.888-1.666,5.19-.244,2.705-1.1,10.114-1.1,14.443,0,4.355,3.088,2.071,3.088,5.18,0,1.564-1.461,3.809-9.915,3.809-7.313-.006-7.437-2.366-7.437-3.406,0-2.974,2.886-1.543,3.616-3.938.976-3.417,2.4-18.783,2.4-19.23,0-.661-.246-1.43-.976-1.383-2.033.1-1.544,5.567-5.161,5.819-1.869.121-2.884-1.243-2.884-3.123,0-2.779,2.357-7.974,5.363-8.178a3.857,3.857,0,0,1,1.179.166,5.028,5.028,0,0,0,1.462.148Q4994.154,2875.5,4999.944,2875.218Z" transform="translate(-4803.318 -2843.604)" fill="#ffeaec"/>
    <path id="Path_496" data-name="Path 496" d="M5031.122,2880.482c-1.341-1.874-3.332-1.025-3.332-2.984,0-2.356,2.193-3.182,9.956-3.273,4.39-.024,5.486.792,5.486,2.469,0,1.99-1.828,1.817-1.83,3.01,0,.778,1.463,4.323,2.154,4.39.609.025,3.17-4.109,3.17-4.611,0-.883-1.383-1.212-1.383-2.77,0-2.411,4.47-2.4,5.974-2.347,3.537.112,5.365.745,5.365,2.584,0,2.371-2.845,1.435-3.941,2.851q-2.379,3.1-4.755,6.43c-2.682,3.786-2.681,4.151-2.886,9.313q-.082,2.931-.161,5.98c-.084,2.621,2.883.948,2.884,3.647,0,1,.242,3.707-7.965,3.714-4.264.006-8.167-.127-8.168-3.174,0-3.339,3.211-1.665,3.5-4.285q.568-5.263,1.138-10.177a7.145,7.145,0,0,0-1.1-3.3Q5033.173,2884.085,5031.122,2880.482Z" transform="translate(-4822.993 -2843.481)" fill="#ffeaec"/>
  </g>
</svg>
