<?xml version="1.0" standalone="no"?>
<!DOCTYPE svg PUBLIC "-//W3C//DTD SVG 20010904//EN"
 "http://www.w3.org/TR/2001/REC-SVG-20010904/DTD/svg10.dtd">
<svg version="1.0" xmlns="http://www.w3.org/2000/svg"
 width="700.000000pt" height="700.000000pt" viewBox="0 0 700.000000 700.000000"
 preserveAspectRatio="xMidYMid meet">
<metadata>
Created by potrace 1.11, written by Peter Selinger 2001-2013
</metadata>
<g transform="translate(0.000000,700.000000) scale(0.100000,-0.100000)"
fill="#000000" stroke="none">
<path d="M3238 6995 c-2 -1 -41 -6 -88 -10 -46 -3 -87 -8 -90 -10 -3 -2 -34
-6 -68 -9 -35 -3 -67 -8 -71 -10 -4 -3 -25 -7 -47 -10 -52 -7 -95 -15 -119
-23 -11 -4 -29 -8 -40 -9 -11 -2 -40 -8 -65 -15 -25 -6 -52 -12 -60 -13 -9 -1
-20 -4 -25 -8 -9 -5 -54 -17 -72 -19 -5 -1 -29 -10 -55 -20 -27 -10 -48 -16
-48 -13 0 4 -6 1 -13 -5 -8 -6 -17 -8 -20 -4 -4 3 -7 1 -7 -5 0 -7 -3 -11 -7
-10 -9 2 -49 -9 -78 -22 -11 -5 -46 -19 -77 -30 -32 -12 -58 -26 -58 -31 0 -6
-4 -8 -9 -4 -11 6 -60 -14 -79 -32 -17 -16 -25 -17 -16 -1 4 7 -6 2 -23 -10
-17 -12 -36 -22 -42 -22 -6 0 -11 -5 -11 -12 0 -6 -3 -9 -6 -5 -7 7 -183 -86
-254 -133 -8 -6 -23 -13 -32 -16 -10 -4 -18 -10 -18 -14 0 -8 -51 -34 -62 -32
-5 1 -8 -2 -8 -7 0 -5 -23 -23 -50 -41 -28 -18 -50 -36 -50 -42 0 -5 -4 -7 -9
-3 -6 3 -14 -3 -20 -12 -6 -10 -11 -14 -11 -10 0 9 -153 -112 -158 -125 -2 -5
-8 -8 -14 -8 -5 0 -23 -14 -39 -31 -16 -17 -29 -29 -29 -26 0 3 -19 -14 -43
-37 -24 -23 -56 -52 -71 -64 -16 -12 -27 -22 -24 -22 3 0 -37 -43 -88 -95 -52
-53 -94 -100 -94 -106 0 -6 -5 -7 -10 -4 -6 3 -10 1 -10 -4 0 -6 -9 -20 -20
-31 -11 -11 -18 -20 -15 -20 2 0 -6 -10 -18 -23 -42 -45 -77 -89 -77 -98 0 -5
-4 -9 -10 -9 -5 0 -10 -6 -10 -14 0 -8 -3 -16 -7 -18 -13 -5 -93 -116 -93
-128 0 -5 -4 -10 -10 -10 -5 0 -10 -7 -10 -15 0 -8 -4 -15 -9 -15 -5 0 -16
-15 -26 -32 -40 -78 -47 -88 -57 -88 -6 0 -8 -3 -5 -7 4 -3 0 -15 -10 -25 -9
-10 -12 -18 -8 -18 4 0 1 -8 -7 -17 -8 -10 -30 -47 -49 -83 -19 -36 -38 -68
-44 -72 -5 -4 -7 -8 -3 -8 4 0 -10 -35 -31 -77 -22 -43 -45 -96 -52 -118 -7
-22 -20 -48 -28 -57 -8 -10 -11 -18 -7 -18 4 0 1 -10 -6 -22 -6 -13 -13 -30
-15 -39 -1 -8 -9 -28 -17 -44 -8 -16 -13 -32 -10 -37 3 -4 0 -8 -5 -8 -6 0
-11 -8 -11 -19 0 -10 -7 -35 -15 -55 -9 -20 -13 -41 -10 -46 4 -6 2 -10 -3
-10 -11 0 -34 -99 -25 -112 3 -7 1 -8 -5 -4 -7 4 -12 1 -12 -8 0 -22 0 -21
-11 -58 -12 -40 -22 -87 -23 -110 0 -10 -3 -18 -7 -18 -4 0 -6 -11 -4 -25 1
-14 -1 -25 -6 -25 -4 0 -6 -11 -3 -25 2 -14 1 -25 -4 -25 -4 0 -8 -10 -9 -22
0 -13 -4 -43 -8 -68 -23 -149 -29 -254 -29 -505 -1 -232 5 -358 19 -445 3 -19
6 -50 7 -67 1 -18 4 -33 7 -33 3 0 7 -15 8 -32 4 -81 9 -108 17 -108 4 0 6 -9
3 -20 -3 -11 -2 -20 2 -20 4 0 7 -10 6 -22 -1 -13 2 -29 7 -35 6 -7 8 -20 4
-28 -3 -8 -1 -15 5 -15 6 0 9 -6 6 -14 -3 -8 -3 -17 1 -20 6 -7 11 -25 16 -58
1 -10 5 -21 9 -24 4 -4 7 -20 7 -36 0 -15 4 -28 8 -28 4 0 9 -12 10 -26 1 -15
7 -33 13 -40 6 -7 8 -17 5 -23 -4 -5 -1 -15 6 -23 7 -7 14 -22 16 -33 1 -11 7
-29 11 -40 5 -11 23 -58 41 -105 18 -47 46 -113 62 -147 16 -35 29 -65 29 -68
-1 -3 8 -20 19 -39 41 -74 64 -121 62 -129 -1 -4 5 -10 13 -13 8 -3 12 -10 9
-15 -3 -5 0 -9 7 -9 7 0 9 -3 6 -6 -4 -4 3 -20 14 -35 11 -16 18 -29 14 -29
-3 0 3 -10 15 -22 11 -12 20 -25 20 -29 0 -12 53 -89 62 -89 4 0 7 -3 6 -7 -3
-11 35 -73 44 -73 4 0 8 -5 8 -10 0 -6 19 -37 43 -68 55 -75 54 -73 80 -103
12 -14 36 -43 52 -64 17 -22 38 -46 48 -54 9 -9 17 -21 17 -29 0 -7 5 -10 10
-7 6 3 10 2 10 -2 0 -5 18 -29 40 -53 22 -24 40 -49 40 -54 0 -5 3 -7 6 -4 3
3 46 -34 95 -83 49 -49 89 -87 89 -83 0 3 18 -13 39 -35 22 -23 42 -41 46 -41
6 0 33 -23 86 -72 11 -10 24 -18 29 -18 6 0 10 -4 10 -10 0 -5 4 -10 10 -10 9
0 35 -19 65 -47 8 -7 19 -13 25 -13 6 0 13 -7 16 -15 4 -8 12 -15 19 -15 7 0
18 -6 24 -14 7 -8 27 -22 46 -31 19 -9 35 -20 35 -25 0 -6 9 -10 20 -10 11 0
20 -4 20 -9 0 -5 12 -16 28 -24 15 -7 50 -26 77 -42 28 -16 59 -33 70 -39 11
-6 27 -17 36 -24 9 -7 26 -15 39 -17 13 -2 31 -12 40 -20 10 -9 24 -18 32 -19
7 -1 48 -18 90 -39 43 -20 86 -37 95 -39 10 -2 20 -5 23 -8 10 -11 113 -50
131 -50 11 0 19 -5 19 -12 0 -6 3 -8 6 -5 4 3 16 1 28 -5 11 -7 28 -13 36 -14
23 -2 44 -8 50 -14 4 -5 76 -25 120 -35 8 -2 15 -4 15 -5 0 -2 3 -2 60 -15 17
-3 35 -7 40 -8 6 -2 15 -5 20 -8 6 -4 18 -5 28 -4 9 2 17 0 17 -5 0 -4 14 -7
30 -6 17 1 30 -2 30 -7 0 -5 7 -7 15 -4 8 4 16 3 19 -1 4 -7 47 -13 104 -15
12 -1 22 -4 22 -8 0 -4 14 -6 31 -5 16 1 32 0 34 -4 2 -3 19 -5 39 -4 20 1 36
-1 36 -5 0 -8 34 -10 330 -15 156 -3 259 -1 267 5 7 7 13 6 17 0 4 -6 12 -8
19 -6 7 2 41 7 77 10 36 3 88 9 115 12 28 3 60 6 73 6 12 1 22 3 22 6 0 4 15
7 33 8 43 4 60 7 75 16 7 5 12 3 12 -5 0 -10 2 -10 9 0 4 8 10 13 12 11 6 -3
115 15 122 21 3 3 28 9 67 16 19 3 42 9 50 14 8 4 33 11 55 15 22 4 46 11 53
17 6 6 12 8 12 5 0 -5 92 24 135 42 11 5 49 19 85 32 36 12 69 26 75 31 5 4
15 8 22 8 19 0 326 150 335 164 4 6 8 7 8 3 0 -5 13 1 29 12 16 12 34 21 40
21 6 0 11 4 11 9 0 5 8 11 18 14 18 6 67 35 89 52 7 6 20 17 30 25 10 8 19 13
20 10 2 -3 19 7 37 23 19 15 37 27 40 27 6 0 37 24 61 47 8 7 18 13 24 13 6 0
11 5 11 11 0 5 4 8 9 5 5 -4 11 -2 13 3 1 4 44 41 93 81 50 40 105 89 123 108
17 19 32 32 32 29 0 -6 160 152 228 226 23 25 42 51 42 57 0 6 5 8 10 5 6 -3
10 1 10 9 0 8 6 19 13 23 18 11 137 160 137 171 0 5 7 12 15 16 8 3 15 12 15
21 0 8 4 15 8 15 4 0 16 14 26 30 9 17 27 40 39 52 12 11 16 18 10 14 -10 -6
52 97 84 139 5 6 20 33 34 62 15 29 30 49 34 45 5 -4 5 1 2 11 -4 9 -3 17 2
17 7 0 22 36 20 49 -1 2 6 8 15 13 9 5 14 13 11 19 -4 5 -1 9 5 9 6 0 9 4 5 9
-3 5 2 16 10 25 9 8 16 18 15 21 0 16 34 85 43 85 6 0 7 3 4 6 -3 4 -1 16 5
28 7 11 13 29 15 39 2 10 10 29 19 42 9 14 13 25 10 25 -4 0 -1 10 6 23 6 12
13 27 14 32 1 6 8 24 15 40 6 17 14 39 16 49 2 11 8 25 14 32 6 7 8 18 4 24
-3 5 -1 10 4 10 6 0 10 3 10 7 -1 5 -1 10 1 13 1 4 4 19 14 65 1 6 4 15 8 20
3 6 16 53 28 105 12 52 24 102 28 110 3 8 6 26 8 40 1 14 3 25 4 25 5 0 22
112 24 157 0 20 4 34 9 31 6 -4 8 13 11 105 1 17 3 32 6 32 9 0 12 99 13 360
1 247 -4 380 -13 380 -3 0 -5 15 -6 33 -2 61 -10 112 -18 126 -7 10 -6 12 4 6
10 -6 11 -4 4 6 -10 17 -14 34 -16 77 -1 17 -5 32 -8 32 -5 0 -8 20 -13 85 -1
17 -5 32 -8 35 -3 3 -14 37 -23 75 -9 39 -19 79 -22 90 -3 11 -7 27 -9 35 -2
8 -4 15 -5 15 -1 0 -3 8 -5 18 -6 30 -90 272 -96 277 -4 3 -10 16 -14 30 -8
29 -22 61 -59 143 -14 31 -25 59 -23 61 1 2 -5 12 -14 22 -9 11 -22 35 -29 54
-8 19 -16 37 -19 40 -4 3 -13 19 -21 35 -25 51 -74 130 -84 137 -6 4 -8 8 -3
8 7 0 -19 47 -33 60 -3 3 -21 31 -40 63 -19 31 -38 57 -42 57 -4 0 -8 6 -8 13
0 7 -11 25 -25 40 -14 15 -23 27 -18 27 4 0 -2 7 -13 15 -10 8 -16 15 -12 15
4 0 -6 13 -22 28 -16 16 -27 31 -24 34 3 3 -5 14 -18 24 -13 11 -34 35 -48 54
-13 19 -32 41 -42 48 -10 7 -18 20 -18 28 0 8 -4 12 -10 9 -5 -3 -10 -1 -10 4
0 13 -231 245 -309 311 -29 25 -69 60 -89 77 -21 18 -43 33 -50 33 -7 0 -10 5
-7 10 3 6 -1 10 -9 10 -9 0 -16 5 -16 10 0 6 -7 10 -16 10 -8 0 -12 5 -9 10 3
6 -1 10 -9 10 -9 0 -16 5 -16 10 0 6 -5 10 -11 10 -6 0 -24 10 -39 23 -42 32
-78 57 -87 59 -5 0 -13 8 -20 17 -7 9 -13 12 -13 8 0 -4 -10 1 -22 13 -12 11
-28 20 -35 20 -7 0 -13 3 -13 8 0 7 -10 13 -66 42 -16 8 -31 17 -34 20 -3 3
-27 16 -55 30 -27 14 -56 31 -63 38 -7 6 -18 13 -23 13 -5 1 -12 3 -16 4 -5 2
-18 6 -30 10 -13 4 -23 12 -23 18 0 6 -3 8 -6 4 -4 -3 -13 1 -21 9 -8 8 -19
12 -24 9 -5 -4 -9 -1 -9 5 0 6 -4 9 -9 5 -5 -3 -17 2 -25 11 -9 8 -16 13 -16
9 0 -3 -10 0 -22 7 -13 7 -25 13 -28 13 -3 1 -18 7 -33 13 -16 7 -34 12 -41
12 -6 0 -17 5 -23 11 -6 6 -17 12 -24 13 -8 2 -30 9 -49 17 -19 7 -38 12 -42
11 -5 -1 -8 3 -8 9 0 5 -4 8 -10 4 -5 -3 -17 -1 -27 4 -34 18 -105 42 -111 37
-2 -3 -14 0 -26 6 -11 7 -28 13 -36 14 -21 4 -55 12 -55 14 0 2 -25 8 -65 16
-51 9 -65 12 -65 14 0 2 -7 3 -65 15 -38 7 -68 12 -115 19 -16 3 -41 7 -55 11
-14 3 -38 6 -55 7 -16 0 -34 3 -39 6 -4 2 -31 6 -60 9 -64 5 -623 12 -628 8z"/>
</g>
</svg>
